<?xml version="1.0" encoding="UTF-8"?><svg id="a" xmlns="http://www.w3.org/2000/svg" viewBox="0 0 1080 1080"><defs><style>.b{fill:#fff;}.c{fill:#ef8124;}</style></defs><path class="c" d="M1080,540C1080,242.23,837.77,0,540,0S0,242.23,0,540s242.23,540,540,540,540-242.26,540-540m-87.84,0c0,249.33-202.85,452.15-452.16,452.15S87.85,789.34,87.85,540,290.69,87.85,540,87.85s452.16,202.82,452.16,452.15"/><path class="b" d="M861.47,446.95l-178.27-175.68c-3.61-3.53-11.15-3.56-14.76,0l-127.83,126.23-127.68-126.07c-3.77-3.74-10.98-3.71-14.72,0l-178.3,175.66c-24.14,23.79-37.46,55.48-37.46,89.21s13.32,65.4,37.46,89.16l178.3,175.69c3.58,3.55,10.85,3.84,14.72,0l127.84-126.24,127.68,126.07c4.32,4.29,10.33,4.37,14.73,0l178.3-175.66c24.14-23.79,37.46-55.48,37.46-89.21s-13.33-65.4-37.46-89.16m-58.68,120.43l-126.98,125.04-76.35-75.47,29.92-29.54c49.14-53.89-13.74-100.96-13.74-100.96-.41-.1-.69-.27-.97-.46l-209.1,206.62-126.91-125.04c-17.49-17.22-17.51-45.27-.05-62.54l126.96-125.07,76.36,75.48-29.96,29.57c-49.12,53.89,13.79,100.96,13.79,100.96,.38,.1,.63,.27,.97,.45l209.07-206.64,126.93,125.04c17.47,17.22,17.49,45.31,.05,62.56"/></svg>