<?xml version="1.0" encoding="UTF-8"?><svg id="a" xmlns="http://www.w3.org/2000/svg" viewBox="0 0 1920 380.49"><defs><style>.b{fill:#fff;}.c{fill:#ee7d00;}</style></defs><path class="c" d="M349.54,190.24c0,87.84-71.46,159.29-159.3,159.29S30.95,278.08,30.95,190.24,102.41,30.95,190.24,30.95s159.3,71.45,159.3,159.29m30.95,0C380.49,85.34,295.15,0,190.24,0S0,85.34,0,190.24s85.34,190.24,190.24,190.24,190.24-85.35,190.24-190.24"/><path class="b" d="M282.82,199.89l-44.74,44.05-26.9-26.59,10.54-10.41c17.31-18.99-4.84-35.57-4.84-35.57-.14-.04-.24-.1-.34-.16l-38.03,37.63h0l-2.32,2.33-33.31,32.83-44.71-44.05c-6.16-6.07-6.17-15.95-.02-22.03l44.73-44.06,26.9,26.59-10.55,10.42c-17.31,18.99,4.86,35.57,4.86,35.57,.13,.04,.22,.1,.34,.16l73.66-72.8,44.72,44.05c6.15,6.06,6.16,15.96,.02,22.04m20.67-42.43l-62.81-61.89c-1.27-1.24-3.93-1.25-5.2,0l-45.04,44.47-44.98-44.41c-1.33-1.32-3.87-1.31-5.19,0l-62.82,61.89c-8.5,8.38-13.2,19.55-13.2,31.43s4.69,23.04,13.2,31.41l62.82,61.9c1.26,1.25,3.82,1.35,5.19,0l45.04-44.47,44.98,44.41c1.52,1.51,3.64,1.54,5.19,0l62.82-61.89c8.5-8.38,13.2-19.55,13.2-31.43s-4.69-23.04-13.2-31.41"/><path class="b" d="M1583.66,273c-40.73,0-66.05-31.94-66.05-83.36s24.7-82.64,66.05-82.64,65.62,30.89,65.62,82.64-25.14,83.36-65.62,83.36m0-210.82c-76.47,0-123.99,48.85-123.99,127.46s47.52,127.81,123.99,127.81,123.57-48.98,123.57-127.81-47.35-127.46-123.57-127.46"/><path class="b" d="M1202.7,271.69h-136.65v-62.23h84.48c8.84-1.13,19.25-4.77,19.25-15.78l.3-27.61h-104.04v-54.68h108.62c11.34-.87,18.1-9.72,20.82-15.61,3.42-7.41,9.45-31.22,9.45-31.23,0,0-173.31,.06-173.58,.06-12.76,0-23.14,9.12-23.14,20.32v209.84c-.01,11.21,10.38,20.32,23.14,20.32h150.07c11.96-.84,21.31-9.7,21.31-20.22,0-.33-.03-23.17-.03-23.17"/><path class="b" d="M1898.84,315.24c11.82-.89,20.9-9.37,21.16-19.77v-23.53l-122.09-.1V64.36h-57.94v250.9l158.87-.02Z"/><path class="b" d="M1255.67,305.74c33.64,9.75,54.94,11.72,78.39,11.72,46.68,0,102.32-12.46,102.32-71.78,0-36.72-17.9-54.47-73.66-73.06l-33.84-11.13c-22.22-7.31-37.97-13.67-37.97-29.3s16.69-25.18,41.53-25.18c17.79,0,34.03,3.69,48.92,7.67l7.77,2.11c11.39,1.7,20.1-3.22,25.54-14.47l9.23-22.58-28.04-8.36c-20.51-6.09-41.85-9.18-63.42-9.18-62.54,0-99.89,26.17-99.89,70,0,36.19,17.7,53.68,72.86,71.97l33.88,11.49c18.03,6.15,38.74,15.11,38.74,30.03,0,27.33-33.09,27.33-43.96,27.33-19.11,0-37.55-2.69-59.79-8.75l-10.76-2.89c-1.76-.34-3.71-.54-5.57-.54-11.93,0-18.34,8.4-21.61,15.47l-8.66,21.47,28,7.97Z"/><path class="b" d="M897.57,274.95l8.93,19.34c7.87,15.47,19.2,20.59,31.6,20.59l40.39-.08s-29.11-59.07-29.94-60.94c-8.03-15.46-22.59-37.4-33.49-41.73-1.18-.47-7.44-2.94-7.44-2.94,0,0,6.71-2.85,8.1-3.48,21.03-8.3,45.41-31.05,45.41-63.98,0-47.23-35.69-77.02-97.93-77.02,0,0-90.67,.06-91.19,.06-11.31,0-22.88,12.55-22.88,22.19v227.94h58V111.17h56.07c23.65,0,39.55,14.02,39.55,34.89,0,23.47-16.28,34.89-48.01,34.89-10.1,0-14.94,1.96-18.69,5.98-7.99,8.58-8.78,24.86-7.93,37.62,43.54,1.48,55.76,20.92,69.45,50.4"/><path class="b" d="M686.73,267.47s-27.5,5.64-45.87,5.64c-42.89,0-68.5-30.89-68.5-82.64v-1.31c0-51.75,25.61-82.64,68.5-82.64,18.37,0,45.87,5.64,45.87,5.64,9.61,1.16,19.17-3.04,24.31-13.78,2.69-5.63,8.38-23.48,8.38-23.48l-19.55-5.8c-18.64-5.31-35.2-7.39-59.01-7.39-78.24,0-126.84,48.82-126.84,127.44v1.31c0,78.62,48.61,127.44,126.84,127.44,23.81,0,40.36-2.08,59.01-7.39l19.55-5.8s-5.68-17.86-8.38-23.48c-5.14-10.74-14.69-14.94-24.31-13.78"/></svg>